<?xml version="1.0" encoding="utf-8"?>
<!-- Generator: Adobe Illustrator 16.0.3, SVG Export Plug-In . SVG Version: 6.00 Build 0)  -->
<!DOCTYPE svg PUBLIC "-//W3C//DTD SVG 1.1//EN" "http://www.w3.org/Graphics/SVG/1.1/DTD/svg11.dtd">
<svg version="1.1" id="Capa_1" xmlns="http://www.w3.org/2000/svg" xmlns:xlink="http://www.w3.org/1999/xlink" x="0px" y="0px"
	 width="1002px" height="1002px" viewBox="0 0 1002 1002" enable-background="new 0 0 1002 1002" xml:space="preserve">
<g>
	<path fill="#111010 " fill-rule="evenodd" clip-rule="evenodd" d="M616.525,30c114.489,0,228.979,0,343.468,0c10.313,0,14.006,3.644,14.006,13.824
		c0.001,227.146,0.154,454.292-0.17,681.438c-0.047,32.723-5.667,64.884-18.229,95.35c-9.068,21.992-21.129,42.278-36.321,60.799
		c-20.276,24.72-44.479,44.749-71.648,61.129c-21.619,13.033-44.997,21.933-70.006,26.629c-14.509,2.725-28.988,3.861-43.696,3.878
		c-230.414,0.267-460.829,0.62-691.244,0.951C31.736,974.014,30,972.29,30,961.504c0-228.979-0.118-457.959,0.183-686.938
		c0.03-22.912,4.102-45.515,10.649-67.669c8.139-27.54,20.691-52.815,37.299-76.062c10.888-15.239,24.103-28.431,38.201-40.793
		c15.873-13.918,33.495-25.099,52.385-34.243c21.798-10.553,44.721-17.681,68.634-21.949c17.162-3.063,34.367-3.868,51.704-3.864
		C398.212,30.014,507.368,30,616.525,30z M909.152,363.421c-0.469-0.273-0.938-0.546-1.406-0.819
		c-4.074,4.126-8.126,8.275-12.227,12.376C767.425,503.079,639.325,631.177,511.227,759.273c-7.555,7.555-10.901,7.552-18.467-0.014
		c-67.997-67.996-135.994-135.994-203.991-203.99c-7.201-7.202-9.384-7.255-16.563,0.047c-14.922,15.178-29.656,30.54-44.681,45.615
		c-39.528,39.663-79.17,79.214-118.767,118.81c-0.707,0.706-1.332,1.531-2.138,2.098c-10.184,7.153-13.959,17.183-13.659,29.3
		c0.478,19.265,0.815,38.533,1.005,57.803c0.163,16.497,0.16,32.999-0.007,49.497c-0.131,12.937-0.74,25.867-0.916,38.805
		c-0.103,7.517,2.37,11.503,7.632,12.524c3.692,0.717,7.503,1.212,11.253,1.165c12.437-0.155,24.87-0.886,37.305-0.89
		c191.491-0.062,382.982-0.105,574.474,0.053c19.6,0.016,38.444-3.414,57.021-9.124c18.229-5.604,35.334-13.779,50.992-24.506
		c13.033-8.93,24.971-19.298,35.129-31.668c12.344-15.03,22.288-31.311,29.486-49.402c7.993-20.09,13.34-40.981,13.427-62.398
		c0.491-121.149,0.241-242.303,0.202-363.454C909.964,367.502,909.435,365.462,909.152,363.421z M362.549,94.889
		c-0.106,0.447-0.213,0.895-0.318,1.343c1.493,1.326,3.061,2.58,4.471,3.989c106.178,106.155,212.343,212.323,318.509,318.49
		c1.061,1.061,2.111,2.13,3.172,3.19c9.944,9.946,19.915,19.866,29.821,29.851c3.655,3.685,6.709,2.866,10.122-0.524
		c35.551-35.317,71.213-70.522,106.763-105.84c22.816-22.668,45.519-45.452,68.224-68.231c4.435-4.449,6.757-9.755,6.743-16.259
		c-0.103-46.327-0.082-92.655-0.011-138.983c0.007-4.434,0.931-8.869,0.896-13.301C910.847,96.504,908.176,94,896.076,94
		c-174.98,0-349.96-0.004-524.939,0.037C368.274,94.038,365.411,94.592,362.549,94.889z M93.9,640.341
		c0.584,0.243,1.168,0.485,1.753,0.729c1.841-1.582,3.796-3.051,5.508-4.762c115.962-115.93,231.906-231.879,347.85-347.827
		c1.06-1.06,2.264-2.018,3.132-3.218c2.077-2.873,3.09-5.699-0.073-8.742c-5.812-5.591-11.447-11.364-17.133-17.085
		c-50.706-51.034-101.424-102.057-152.095-153.125c-8.771-8.84-18.513-12.737-31.472-10.577
		c-19.001,3.166-37.218,8.386-54.379,16.89c-20.719,10.268-38.962,23.884-54.529,41.234c-14.713,16.398-26.303,34.568-34.761,54.836
		c-7.671,18.382-12.363,37.603-13.495,57.367c-1.233,21.548-1.196,43.187-1.15,64.785c0.207,98.423,0.611,196.846,0.939,295.268
		c0.005,1.664-0.083,3.327-0.091,4.991C93.889,634.184,93.9,637.262,93.9,640.341z M502.095,327.817
		c-2.966,2.058-5.738,3.451-7.826,5.531c-5.63,5.611-10.829,11.655-16.445,17.281c-44.619,44.7-89.284,89.354-133.977,133.981
		c-3.502,3.498-7.482,6.521-10.938,10.061c-6.673,6.833-6.573,8.155,0.097,14.826c54.323,54.327,108.641,108.659,162.979,162.973
		c5.193,5.191,5.454,6.466,11.76,0.182c54.767-54.584,109.404-109.298,164.074-163.979c4.071-4.072,4.985-7.582,0.136-12.363
		c-23.259-22.93-46.262-46.12-69.358-69.215c-31.699-31.696-63.394-63.396-95.124-95.062
		C506.056,330.62,504.31,329.537,502.095,327.817z"/>
</g>
</svg>
